<svg xmlns="http://www.w3.org/2000/svg" height="200" width="200" viewBox="-589 1042.5 200 200"><path fill="#09F" d="M-411.22 1042.5h-155.56c-12.22 0-22.222 10.003-22.222 22.222v155.56c0 12.22 10.003 22.222 22.222 22.222h155.56c12.22 0 22.222-10.003 22.222-22.222v-155.56c0-12.22-10.003-22.222-22.222-22.222zm-77.946 161.4c33.97 0 61.564-27.593 61.564-61.564 0-3.76-.47-7.385-1.14-10.943h17.59v80.16c0 4.23-3.425 7.655-7.722 7.655h-140.25c-4.23 0-7.72-3.424-7.72-7.654v-80.16h17.186c-.67 3.557-1.14 7.183-1.14 10.942.066 33.97 27.592 61.564 61.63 61.564zm-38.47-61.564c0-21.215 17.255-38.47 38.47-38.47s38.47 17.188 38.47 38.47-17.255 38.47-38.47 38.47c-21.282 0-38.47-17.188-38.47-38.47zm108.69-44.243h-17.924c-4.23 0-7.72-3.49-7.72-7.72v-17.994c0-4.23 3.423-7.655 7.653-7.655h17.925c4.297 0 7.72 3.424 7.72 7.653v17.925c.068 4.297-3.356 7.788-7.653 7.788z"/></svg>
